# xmcd CD database file
#
# Track frame offsets:
#	150
#	11483
#	21965
#	32843
#	46615
#	59351
#	71522
#	84575
#	97637
#	109278
#	123437
#	134187
#	149803
#	159773
#	171150
#	182454
#	193108
#	208453
#	221310
#	233433
#	248358
#	265743
#	282218
#	296329
#	307722
#
# Disc length: 4312 seconds
#
# Revision: 3
# Processed by: cddbd v1.5.2PL0 Copyright (c) Steve Scherf et al.
# Submitted via: CDex 1.51
#
DISCID=5910d619
DTITLE=Various Artist - A Complete Introduction To Northern Soul CD3
DYEAR=2008
DGENRE=Soul/R&B
TTITLE0=The Tams - Hey Girl Don't Bother Me
TTITLE1=Holly St. James - That's Not Love
TTITLE2=Earl Jackson - Soul Self Satisfaction
TTITLE3=Barbara Randolph - I Got A Feeling
TTITLE4=The Dalton Boys - Take My Hand
TTITLE5=Jimmy Ruffin - He Who Picks A Rose
TTITLE6=Bobby Hebb - Love, Love, Love
TTITLE7=Prophets - I Got The Fever
TTITLE8=William Bell - Happy
TTITLE9=Johnny Taylor - Friday Night
TTITLE10=Carolyn Crawford - Keep Stepping (Never Look Back)
TTITLE11=The Supremes - Life Beats
TTITLE12=Gloria Jones - Tainted Love
TTITLE13=Jeanette Harper - (Pick Me Up) Put Me In Your Pocket
TTITLE14=Chubby Checker - At The Discotheque
TTITLE15=Bunny Sigler - Girl Don't Make Me Wait
TTITLE16=The Dells - Wear It On Our Face
TTITLE17=Four Tops - Sweet Was The Love
TTITLE18=Tommy Good - I've Gotta Get Away
TTITLE19=David Ruffin - Walk Away From Love
TTITLE20=Drizabone - Real Love
TTITLE21=Frank Popp Ensemble - Breakaway
TTITLE22=Don Covay - It's Better To Have (And Don't Need)
TTITLE23=Pete Warner - Just Want To Spend My Life With You
TTITLE24=The Temptations - You're My Everything [feat. James Jamerson]
EXTD=YEAR: 2008
EXTT0=
EXTT1=
EXTT2=
EXTT3=
EXTT4=
EXTT5=
EXTT6=
EXTT7=
EXTT8=
EXTT9=
EXTT10=
EXTT11=
EXTT12=
EXTT13=
EXTT14=
EXTT15=
EXTT16=
EXTT17=
EXTT18=
EXTT19=
EXTT20=
EXTT21=
EXTT22=
EXTT23=
EXTT24=
PLAYORDER=
